<?xml version="1.0" standalone="no"?>
<!DOCTYPE svg PUBLIC "-//W3C//DTD SVG 1.1//EN" "http://www.w3.org/Graphics/SVG/1.1/DTD/svg11.dtd">
<svg width="100%" height="100%" viewBox="0 0 128 128" version="1.1" xmlns="http://www.w3.org/2000/svg" xmlns:xlink="http://www.w3.org/1999/xlink" xml:space="preserve" style="fill-rule:evenodd;clip-rule:evenodd;stroke-linejoin:round;stroke-miterlimit:1.41421;">
    <path d="M13.335,25.167C11.291,24.145 10,22.057 10,19.772C10,19.736 10,19.716 10,19.716C10,17.635 11.078,15.702 12.848,14.608C14.618,13.514 16.829,13.415 18.691,14.345C37.209,23.604 80.72,45.36 103.506,56.753C106.251,58.126 107.985,60.931 107.985,64C107.985,67.069 106.251,69.874 103.506,71.247C80.736,82.632 37.271,104.364 18.73,113.635C16.86,114.57 14.64,114.47 12.861,113.371C11.083,112.272 10,110.33 10,108.239C10,108.239 10,108.239 10,108.238C10,105.947 11.294,103.853 13.343,102.828C26.127,96.436 71.929,73.536 86.509,66.246C87.359,65.82 87.897,64.951 87.897,64C87.897,63.049 87.359,62.18 86.509,61.754C71.926,54.463 26.107,31.553 13.335,25.167Z" style="fill:white;"/>
</svg>
